<svg width="105" height="105" viewBox="0 0 105 105" fill="none" xmlns="http://www.w3.org/2000/svg">
<path d="M80.7059 80.28C80.8463 80.3864 80.9271 80.4502 81.008 80.5098C81.6845 81.0119 82.4206 81.4459 83.0291 82.0203C84.3099 83.233 85.731 84.2329 87.2586 85.101C87.5011 85.2414 87.7522 85.3946 87.9394 85.5988C88.0798 85.7477 88.2542 86.0371 88.1947 86.1732C88.1096 86.3775 87.8543 86.5987 87.6373 86.6455C87.2458 86.7264 86.8246 86.7264 86.4289 86.6796C84.6503 86.4753 82.9014 86.1817 81.3909 85.101C80.5272 84.4882 79.6293 83.9223 78.7443 83.3394C77.6678 82.633 77.5316 82.6671 76.5317 83.4883C72.6001 86.7221 68.2855 89.3006 63.4901 91.0367C62.3498 91.4494 61.1796 91.7771 60.0265 92.1558C59.8223 92.2238 59.6393 92.3387 59.4436 92.4323C59.4478 92.4834 59.4564 92.5345 59.4606 92.5855C59.6904 92.6366 59.9202 92.7132 60.1499 92.7302C60.869 92.7812 61.5966 92.8749 62.3115 92.828C63.3412 92.76 64.3922 92.6876 65.3836 92.4323C66.4856 92.1472 67.5707 91.726 68.5961 91.2282C69.311 90.8793 70.0343 90.407 70.5364 89.8027C71.5831 88.5433 72.9235 87.8752 74.4127 87.3561C76.136 86.7562 77.8933 86.3519 79.7017 86.5945C80.9995 86.7689 82.2717 87.1646 83.5482 87.4838C83.7397 87.5306 83.9141 87.6923 84.0758 87.8284C84.5949 88.2497 84.6332 88.5518 84.0588 88.9007C83.0802 89.4879 82.0504 89.9857 81.0292 90.5006C80.4165 90.8112 79.7485 91.0197 79.1613 91.3686C76.9657 92.6834 74.6297 92.6281 72.2384 92.1558C71.6172 92.0324 70.9959 91.8451 70.3662 91.8196C69.7833 91.7983 69.1748 91.892 68.6174 92.0579C67.9494 92.2579 67.3239 92.5855 66.592 92.8961C66.7579 92.9557 66.8175 92.994 66.8771 92.9982C70.3875 93.1897 73.0426 94.9768 75.1701 97.6149C76.1275 98.8021 76.8636 100.172 77.6891 101.466C78.2592 102.359 78.8166 103.261 79.357 104.176C79.4677 104.363 79.557 104.742 79.4677 104.819C79.306 104.959 78.9741 105.044 78.7741 104.976C78.1273 104.755 77.4933 104.478 76.8764 104.18C75.3871 103.461 73.9149 102.704 72.4214 101.985C71.2853 101.44 70.3449 100.64 69.4982 99.7339C67.9621 98.1 66.4431 96.4448 64.9623 94.7598C64.2943 94.0024 63.5922 93.4791 62.52 93.5386C61.886 93.5727 61.2477 93.428 60.6946 93.3684C61.303 94.8832 61.8604 96.3767 62.5029 97.8319C62.8561 98.6361 63.3539 99.3808 63.7794 100.151C64.0135 100.572 64.3241 101.108 63.9624 101.474C63.5837 101.857 63.0646 101.487 62.6646 101.249C61.0903 100.308 59.7797 99.0999 58.9287 97.4362C58.5585 96.7129 58.116 96.0193 57.8012 95.2747C57.2863 94.045 56.2906 93.628 55.1035 93.6025C54.0865 93.5812 53.0611 93.6961 52.0441 93.7982C49.4401 94.0535 46.8403 94.1471 44.2192 94.0109C40.1812 93.7982 36.2368 93.0748 32.3945 91.8366C28.4161 90.5516 24.6802 88.7432 21.1783 86.4328C16.6169 83.4245 12.6853 79.7482 9.4047 75.3783C6.23046 71.1445 3.80936 66.5193 2.19246 61.4559C1.23934 58.4731 0.545771 55.435 0.260685 52.3374C-0.122265 48.176 -0.11801 43.9976 0.507476 39.8362C1.36699 34.1302 3.22217 28.7774 6.06877 23.7906C9.49405 17.791 14.0044 12.7573 19.6295 8.73209C24.6334 5.14937 30.1223 2.63892 36.0921 1.25179C40.6492 0.192289 45.2872 -0.233211 49.9677 0.124209C55.2056 0.52418 60.2776 1.62623 65.124 3.72395C74.6595 7.8513 82.0632 14.4125 87.3564 23.348C90.2839 28.2881 92.1518 33.6452 93.1305 39.3213C93.7645 42.9849 93.8028 46.674 93.6028 50.3461C93.2241 57.1924 91.2881 63.6259 87.999 69.6468C86.3778 72.6125 84.4588 75.357 82.2632 77.9142C81.8419 78.4036 81.3696 78.8546 80.9229 79.3227C80.9484 79.3609 80.9782 79.4035 81.0037 79.4418C81.6462 79.1099 82.31 78.8163 82.9227 78.4334C84.9992 77.1356 86.5991 75.3485 87.8883 73.2848C88.1734 72.8338 88.3734 72.2806 88.45 71.753C88.6542 70.3488 89.2542 69.1574 90.1945 68.132C91.688 66.5023 93.173 64.8514 95.241 63.911C96.7983 63.2047 98.4365 62.7962 100.147 62.7494C101.151 62.7239 101.441 63.2217 100.879 64.0387C99.8662 65.5109 98.7896 66.9321 97.7387 68.3788C97.6536 68.4937 97.5557 68.6 97.4876 68.7192C96.0664 71.1786 93.7517 72.3274 91.1604 73.0848C90.62 73.2423 90.0839 73.421 89.552 73.6124C88.684 73.923 87.9649 74.4166 87.4288 75.1996C87.0543 75.7485 86.5693 76.2208 86.0544 76.8207C86.2672 76.7654 86.382 76.7569 86.4757 76.7101C88.4798 75.6974 90.6073 75.4804 92.8071 75.6761C95.8111 75.9484 98.4067 77.2547 100.9 78.8461C101.998 79.5482 103.155 80.1609 104.27 80.8374C104.491 80.9736 104.649 81.2161 104.836 81.4119C104.602 81.6033 104.393 81.8842 104.125 81.965C103.708 82.0884 103.257 82.1012 102.815 82.1182C100.717 82.199 98.6152 82.2118 96.5217 82.348C94.7431 82.4629 93.0879 81.9863 91.4498 81.4459C89.4967 80.7991 87.5777 80.0375 85.6459 79.3227C85.5481 79.2844 85.4502 79.2418 85.3523 79.1993C84.463 78.795 83.6291 78.761 82.7568 79.3354C82.1483 79.7354 81.425 79.9609 80.6846 80.2971L80.7059 80.28ZM62.5965 90.0666C62.6306 90.1176 62.6646 90.1687 62.6944 90.2197C63.0986 90.0666 63.4944 89.8793 63.9114 89.7645C64.3369 89.6453 64.69 89.5347 64.6985 88.973C64.6985 88.7858 64.9155 88.5773 65.073 88.4199C66.792 86.7179 68.7365 85.3222 70.8257 84.118C72.0639 83.4032 73.2681 82.633 74.4808 81.8757C75.1871 81.4331 75.5956 80.8119 75.5488 79.9354C75.5233 79.4588 75.5488 78.978 75.5403 78.5014C75.5148 76.6931 75.8041 74.9357 76.4041 73.238C77.1274 71.1913 78.5656 69.6893 80.3102 68.4809C81.1782 67.8767 82.076 67.315 82.9993 66.7959C83.2248 66.6683 83.6461 66.7108 83.8758 66.847C84.029 66.9363 84.0801 67.3533 84.029 67.5916C83.9184 68.1065 83.7142 68.6 83.5354 69.0979C82.7951 71.1403 81.9824 73.1614 81.3314 75.2293C80.808 76.8931 80.1995 78.4631 78.8805 79.6673C78.8081 79.7354 78.7783 79.8503 78.7273 79.9481C78.9188 79.9481 79.0294 79.8801 79.1102 79.7865C80.425 78.2589 81.8037 76.7824 83.0376 75.191C87.4245 69.5447 90.4073 63.226 91.7561 56.1797C92.1774 53.9756 92.5433 51.7417 92.6582 49.5078C92.8156 46.4144 92.7092 43.321 92.2072 40.2362C91.688 37.0407 90.9434 33.9175 89.7946 30.9092C87.182 24.0884 83.2078 18.1825 77.8337 13.2254C73.383 9.12355 68.328 6.03016 62.6731 3.91968C59.6776 2.80061 56.597 1.99641 53.41 1.58793C50.2953 1.18796 47.1977 0.80501 44.0319 1.14541C41.0279 1.46879 38.0537 1.86025 35.1262 2.63892C28.3225 4.44304 22.2548 7.65132 16.9573 12.2808C9.09408 19.1611 4.0136 27.7137 1.96269 38.0065C1.23934 41.6403 0.784051 45.3166 1.06063 49.0398C1.30316 52.3246 1.67335 55.5967 2.54988 58.788C5.14969 68.2767 10.1919 76.2037 17.7317 82.4841C24.5355 88.1518 32.3732 91.5218 41.1343 92.6919C42.398 92.8621 43.7043 92.9004 44.9766 92.8153C46.3424 92.7259 47.687 92.3472 49.0529 92.2238C50.8442 92.0579 52.6441 91.9898 54.4397 91.9388C55.546 91.909 56.2183 91.3728 56.7246 90.4282C57.2395 89.4666 57.7969 88.5092 58.4479 87.6369C60.018 85.5392 62.0051 84.0457 64.6943 83.7479C65.8304 83.6202 66.9792 83.5436 68.1238 83.5138C68.4302 83.5053 68.7408 83.7734 69.0471 83.9138C68.911 84.1691 68.8259 84.4797 68.6259 84.6627C67.8643 85.369 67.0515 86.0243 66.2771 86.7179C65.0474 87.8242 63.8262 88.9432 62.6051 90.058L62.5965 90.0666ZM90.4583 78.561C90.5477 78.8844 90.603 79.0971 90.6796 79.3737C89.8201 79.2673 89.6116 78.378 88.918 78.1142C88.9478 78.1993 88.9691 78.2589 88.9904 78.3185C89.0542 78.5185 89.118 78.7227 89.1861 78.9227C88.9946 78.8163 88.7904 78.727 88.6117 78.5993C88.4074 78.4504 88.2245 78.2674 88.033 78.0972C88.0032 78.1355 87.9734 78.1695 87.9394 78.2078C88.1351 78.4291 88.3436 78.6419 88.5223 78.8759C88.5989 78.9823 88.6117 79.1354 88.6542 79.2673C88.5138 79.2461 88.3521 79.2546 88.233 79.195C87.9989 79.0716 87.7734 78.9269 87.5692 78.761C87.2288 78.4844 86.9437 78.127 86.4246 78.4632C86.3225 78.5312 86.0714 78.3695 85.8885 78.31C85.7778 78.2759 85.6629 78.2419 85.5523 78.2036C85.531 78.2504 85.5098 78.2972 85.4885 78.344C85.6076 78.4249 85.7183 78.5312 85.8502 78.5823C86.8756 78.995 87.8883 79.4461 88.9393 79.7865C90.6626 80.3481 92.4029 80.8672 94.1517 81.3395C95.3176 81.6544 96.5132 81.5778 97.7216 81.497C99.3513 81.3863 100.998 81.4629 102.636 81.4587C102.883 81.4587 103.134 81.4587 103.381 81.4587C103.27 81.2374 103.151 81.1353 103.019 81.0502C101.875 80.3183 100.764 79.5226 99.5726 78.8801C98.1812 78.1313 96.7515 77.4207 95.2708 76.8803C93.1986 76.1229 91.0328 76.3229 88.8882 76.6292C88.4925 76.6845 88.1053 76.7909 87.7139 76.876C88.9861 76.9101 90.2371 76.7739 91.4753 76.842C92.7178 76.9101 93.9815 77.0632 95.1729 77.3994C96.3643 77.7355 97.4919 78.3185 98.628 78.8333C100.492 79.6801 101.632 80.4247 101.662 80.7098C101.181 80.7906 100.709 80.8757 100.232 80.9438C100.177 80.9523 100.079 80.9098 100.049 80.863C99.7215 80.3268 99.2151 80.08 98.7386 79.9907C98.7556 80.2758 98.7726 80.5864 98.7939 80.9013C98.7258 80.9268 98.662 80.9566 98.5939 80.9821C98.3642 80.7311 98.1131 80.497 97.9089 80.229C97.6961 79.9481 97.5429 79.6205 97.3259 79.3439C97.2281 79.2163 97.0366 79.1652 96.8877 79.0759C96.8877 79.2418 96.8366 79.429 96.8962 79.5652C96.9898 79.7865 97.1855 79.9694 97.2876 80.1864C97.394 80.4119 97.4451 80.663 97.5344 80.9608C96.6749 80.9523 96.7004 80.1822 96.2494 79.846C96.4111 80.2417 96.5515 80.5906 96.6962 80.9438C96.5855 81.0247 96.4749 81.1055 96.36 81.1863C96.1983 80.9353 96.0452 80.68 95.8792 80.429C95.3644 79.6503 94.858 78.8674 94.3304 78.0972C94.2113 77.927 94.024 77.8036 93.8709 77.659C93.8283 77.71 93.7858 77.7611 93.7432 77.8164C94.1942 78.3738 94.641 78.9312 95.0963 79.4843C95.4537 79.9184 95.5048 80.1822 95.2495 80.5736C94.4708 79.6545 93.6964 78.744 92.9262 77.8377C92.8922 77.8674 92.8582 77.8972 92.8241 77.927C93.1858 78.6121 93.956 79.0503 93.99 79.9566C93.6964 79.8247 93.4454 79.6545 93.2411 79.4375C92.8624 79.0418 92.5348 78.595 92.1391 78.2206C91.9987 78.0844 91.7306 78.0887 91.5178 78.0249C91.5604 78.2419 91.5391 78.5014 91.654 78.6674C91.9604 79.1184 92.3433 79.5184 92.6582 79.9652C92.7731 80.1269 92.7943 80.3609 92.8624 80.5609C92.8071 80.5949 92.756 80.6289 92.7007 80.663C91.7604 80.2332 91.3732 79.1737 90.4583 78.561ZM67.894 93.845C69.996 94.7003 71.9533 95.7385 73.5362 97.3937C75.1148 99.0446 77.3146 102.351 77.2125 102.925C76.7998 102.721 76.3828 102.525 75.9828 102.3C75.9062 102.257 75.902 102.091 75.8509 101.985C75.7105 101.683 75.5616 101.389 75.3914 101.036C75.2467 101.189 75.2084 101.249 75.1488 101.287C74.9744 101.402 74.7957 101.504 74.6169 101.615C74.5531 101.427 74.4553 101.244 74.4297 101.053C74.3829 100.666 74.3957 100.274 74.3489 99.8871C74.3319 99.7424 74.234 99.6063 74.1744 99.4659C74.1191 99.4744 74.0638 99.4786 74.0085 99.4871C73.9489 100.04 73.8851 100.593 73.8255 101.142L73.5787 101.168C73.4809 100.951 73.383 100.734 73.3022 100.555C73.0809 100.474 72.6426 100.368 72.6469 100.317C72.7022 99.8786 72.2809 99.8063 72.1363 99.5467C72.0044 99.3084 71.9235 99.0361 71.864 98.768C71.7703 98.334 71.7065 97.8915 71.6342 97.4532C71.5236 98.2248 71.386 98.6659 71.2215 98.7766C70.8002 97.9809 70.9662 96.9639 70.2598 96.1427C69.7407 97.1086 70.6981 97.9638 70.2428 98.8361C70.1322 98.7808 69.9577 98.7553 69.9322 98.6787C69.6514 97.8404 69.3918 96.9937 69.1195 96.1257C69.0769 96.3469 69.0344 96.5554 68.9876 96.7895C68.3919 96.6661 68.5238 96.1172 68.3366 95.8023C68.3025 95.7853 68.2855 95.7725 68.2685 95.7725C68.2004 95.7768 68.1281 95.7725 68.06 95.798C67.3579 96.0278 66.9324 95.73 66.6856 95.0789C66.6601 95.0151 66.6048 94.9641 66.575 94.9002C66.392 94.5428 66.1154 94.3939 65.5708 94.5215C66.7026 95.7853 67.7664 97.0022 68.8642 98.1936C70.3279 99.7807 71.9533 101.147 74.0425 101.853C74.1574 101.891 74.2553 101.972 74.3659 102.032C75.5743 102.687 76.7785 103.342 77.9912 103.985C78.0805 104.031 78.2082 104.01 78.3273 104.023C77.6465 102.806 77.004 101.606 76.3147 100.44C74.7999 97.883 72.9064 95.7044 70.1279 94.4705C69.4173 94.1556 68.711 93.7769 67.8983 93.845H67.894ZM83.3993 67.3959C83.1227 67.5193 82.9695 67.5618 82.8461 67.6469C81.8207 68.366 80.7739 69.0596 79.7783 69.8212C78.7401 70.6127 77.8465 71.5743 77.4253 72.8295C76.9742 74.1784 76.6594 75.5782 76.3104 76.9611C76.2466 77.2079 76.3019 77.4802 76.3019 77.7483C76.5572 77.7611 76.77 77.7696 77.038 77.7823C76.9529 77.6419 76.8678 77.5653 76.8764 77.493C76.8934 77.2675 76.9444 77.042 76.9827 76.8165C77.1359 76.9739 77.3316 77.1101 77.4338 77.2973C77.5104 77.4377 77.4593 77.6419 77.4806 77.8164C77.4976 77.9525 77.5401 78.0887 77.5699 78.2249L77.7359 78.2121C77.7486 77.9993 77.8039 77.7781 77.7742 77.5696C77.6635 76.7824 77.5146 76.0038 77.4082 75.2166C77.3784 74.9911 77.4508 74.7485 77.4763 74.5145L77.6806 74.506C78.2167 75.2336 78.1997 76.1442 78.4124 76.9909C78.472 76.8462 78.5018 76.6931 78.4635 76.5569C78.3528 76.1782 78.4252 75.9697 78.8634 75.8846C79.2634 75.8038 79.2719 75.5485 78.9273 75.2506C78.4379 74.8209 78.2465 73.8635 78.5869 73.0933C78.8294 73.5444 79.0336 73.9188 79.2336 74.2975C79.1187 73.5571 78.906 72.855 78.7613 72.1359C78.7018 71.8509 78.3614 71.4083 78.8337 71.2679C79.2464 71.1488 79.2251 71.6636 79.3528 71.9317C79.557 72.3487 79.7527 72.77 79.9527 73.1912C80.008 73.1699 80.0634 73.1486 80.1229 73.1274C80.0804 72.5827 80.0166 72.0381 80.0038 71.4934C79.9995 71.3105 80.0591 71.0637 80.1825 70.9488C80.3825 70.7616 80.4803 70.6339 80.3102 70.3744C80.2591 70.2978 80.3016 70.0808 80.3782 70.0212C80.4506 69.9616 80.6293 69.9872 80.7442 70.0297C80.8505 70.068 80.9271 70.1786 81.0846 70.3148C81.1952 70.068 81.242 69.834 81.3824 69.6808C81.5696 69.4766 81.8292 69.3404 82.059 69.1787C82.0504 69.417 82.0632 69.6553 82.0334 69.8893C82.0164 70.0212 81.9143 70.1446 81.859 70.2723C81.3867 71.4296 80.8165 72.5572 80.4633 73.7529C79.9187 75.591 79.3358 77.3951 78.3188 79.0376C78.272 79.1142 78.2592 79.2163 78.1997 79.3992C78.3614 79.3141 78.455 79.2929 78.5018 79.2376C79.3953 78.1695 80.0761 76.9952 80.4846 75.6463C80.9867 73.9996 81.5313 72.3615 82.0973 70.7361C82.4759 69.6595 82.927 68.6086 83.4035 67.4001L83.3993 67.3959ZM89.6116 72.1359C89.701 72.1657 89.786 72.1913 89.8754 72.221C90.0754 71.6339 90.2541 71.0382 90.4796 70.4595C90.5562 70.2637 90.7307 69.9787 90.8839 69.9659C91.2796 69.9276 91.3902 69.6936 91.4583 69.3872C91.5391 69.0255 91.5817 68.6553 91.6753 68.2937C91.7646 67.9575 91.9391 67.7107 92.4922 67.9873C92.2369 68.9702 91.9774 69.9702 91.7178 70.9701C91.8838 70.8722 92.0199 70.7488 92.054 70.5999C92.1816 70.0467 92.3816 69.5744 92.9305 69.2893C93.0837 69.2128 93.173 68.9447 93.2198 68.749C93.3815 68.0639 93.5177 67.3661 93.6539 66.6768C93.7092 66.3917 93.7815 66.2428 94.1432 66.3534C94.5091 66.464 94.9133 66.4555 95.3516 66.5066C95.3516 66.1704 95.3686 65.9407 95.3473 65.7151C95.3133 65.3833 95.492 65.2641 95.7728 65.2428C96.1303 65.2173 96.1132 65.4981 96.1047 65.7194C96.0877 66.0598 96.0239 66.3959 95.9771 66.7363C96.7515 66.5832 96.9047 65.979 96.9898 65.2982C97.0281 65.0131 97.1727 64.7407 97.2706 64.4642C97.4621 64.6727 97.6536 64.8769 97.8493 65.0897C98.2067 64.8003 98.6237 64.4642 99.113 64.0685C99.1769 64.6386 97.4493 67.1108 96.0494 68.4681C94.7644 69.7106 93.39 70.8552 92.071 72.0338C92.1178 72.0253 92.2284 72.0338 92.3135 71.9955C93.9304 71.2467 95.4324 70.3531 96.4792 68.8383C97.1345 67.8937 97.8578 67.0002 98.5429 66.0811C99.1513 65.2684 99.7555 64.4472 100.364 63.6302C100.321 63.5664 100.279 63.5025 100.232 63.4387C98.2025 63.6472 96.2366 64.1068 94.4751 65.2173C92.8156 66.264 89.2329 69.8042 89.3988 71.1998C89.6428 70.6949 89.9194 70.4453 90.2286 70.451C90.0201 71.0169 89.8116 71.5828 89.6031 72.1445L89.6116 72.1359ZM73.3787 89.7432C74.1276 89.3347 74.3191 88.2794 75.4552 88.2752C74.7871 89.2836 74.1106 90.1134 73.2724 90.8282C73.6851 90.6452 74.0298 90.3687 74.3957 90.1261C74.5872 89.9985 74.8467 89.824 75.0254 89.8666C75.3658 89.9517 75.502 89.807 75.6807 89.5815C76.1019 89.0581 76.536 88.5475 76.987 88.0539C77.0678 87.9646 77.2551 87.9773 77.3912 87.9433C77.3827 88.1007 77.4167 88.2837 77.3487 88.4071C77.2082 88.6624 77.0125 88.8879 76.8381 89.1304C76.8764 89.156 76.9147 89.1815 76.9487 89.207C77.1274 88.9943 77.2934 88.7645 77.4933 88.573C77.5955 88.4752 77.7571 88.4369 77.8933 88.3688C77.8805 88.5262 77.9146 88.7092 77.8508 88.8411C77.7486 89.0453 77.5784 89.2198 77.438 89.4028C77.4806 89.4368 77.5231 89.4751 77.5657 89.5091C77.7699 89.2666 77.9784 89.0283 78.1699 88.7773C78.3954 88.4837 78.5911 88.1646 78.8422 87.8922C78.9188 87.8071 79.123 87.8327 79.2634 87.8071C79.2719 87.9433 79.3358 88.1092 79.2847 88.2156C79.1145 88.556 78.9017 88.8709 78.6932 89.2113C79.5017 89.1262 79.6719 89.0113 80.2038 88.2752C80.3655 88.0497 80.4761 87.6965 80.9101 87.8582C80.9229 88.0709 80.9399 88.2922 80.9527 88.539C81.0675 88.5262 81.1526 88.5262 81.2335 88.5007C81.4505 88.4326 81.6675 88.2837 81.876 88.2922C82.0504 88.3007 82.2164 88.4837 82.3866 88.5901C82.2632 88.7092 82.1568 88.8709 82.0079 88.939C81.7228 89.0709 81.3952 89.1177 81.1143 89.2538C78.7954 90.3644 76.3828 91.1686 73.817 91.4537C73.7489 91.4622 73.6851 91.5303 73.4936 91.6409C75.2084 91.7217 76.7572 91.743 78.2252 91.0239C79.8847 90.2112 81.5739 89.4496 83.2419 88.6581C83.3525 88.6028 83.5057 88.4837 83.5099 88.3901C83.5099 88.2965 83.3652 88.1348 83.2589 88.1135C81.8717 87.7944 80.4974 87.3689 79.0932 87.2157C77.3359 87.02 75.7062 87.7731 74.0553 88.2582C73.4255 88.4454 72.8213 88.7347 72.1661 88.9943C72.4639 89.4581 72.3192 89.7389 72.0129 89.9985C71.7448 90.224 71.5065 90.4835 71.2555 90.7303L71.4342 90.9218C72.0257 90.3474 72.6171 89.773 73.2553 89.1517C73.3107 89.4028 73.3404 89.5389 73.3787 89.7176V89.7432ZM59.2436 91.3558C59.4181 91.3558 59.4989 91.3813 59.55 91.3558C60.3286 90.8878 61.1796 90.5006 61.8647 89.9134C63.4731 88.5347 65.0006 87.0625 66.5622 85.6328C67.0984 85.1393 67.6387 84.6499 68.1749 84.1563C67.9962 84.05 67.894 84.0415 67.7962 84.0542C66.8941 84.1861 65.9921 84.3691 65.0857 84.4499C63.4305 84.5989 61.9498 85.1605 60.7073 86.2498C59.2181 87.5561 58.0948 89.1645 57.1757 90.9175C57.1161 91.0324 57.0991 91.1729 57.0608 91.3005C57.0991 91.3303 57.1416 91.3558 57.1799 91.3856C57.8309 90.5389 58.1203 89.356 59.4266 88.9177C59.2351 89.4496 59.0819 89.8708 58.9245 90.2963C59.2053 90.0155 59.4138 89.6964 59.55 89.3517C59.7585 88.8283 59.9031 88.2794 60.1116 87.7561C60.1712 87.6072 60.3542 87.505 60.4776 87.3816C60.5329 87.4157 60.5882 87.4497 60.6478 87.4838C60.5797 87.9816 60.5116 88.4794 60.4563 88.8751C60.7541 88.9134 61.0477 88.9517 61.469 89.0028C60.9031 88.3177 61.3796 87.7263 61.4732 87.1136C61.4945 86.9774 61.6562 86.837 61.7881 86.7519C61.8477 86.7136 62.0774 86.8072 62.0817 86.8583C62.0987 87.0157 62.0647 87.1859 62.0179 87.3391C61.9796 87.4753 61.8987 87.5944 61.8392 87.722C61.8945 87.7476 61.9498 87.7688 62.0051 87.7944C62.0859 87.5986 62.1881 87.4072 62.2391 87.2029C62.3668 86.7094 62.4434 86.1988 62.5923 85.7094C62.6519 85.518 62.8476 85.369 62.9795 85.1988C63.0561 85.2329 63.1284 85.2626 63.205 85.2967C63.1072 85.9179 63.0093 86.5434 62.9114 87.1646C62.971 87.2327 63.0263 87.2965 63.0859 87.3646C63.1923 87.1561 63.2774 86.9391 63.405 86.7476C63.7199 86.2626 64.0433 85.786 64.3751 85.318C64.7836 84.7435 64.856 84.7478 65.2474 85.4031C65.4304 85.2712 65.5963 85.101 65.7963 85.0286C65.9835 84.9648 66.2091 85.0073 66.4218 85.0031C66.3325 85.1733 66.2814 85.3945 66.141 85.5052C65.5963 85.952 64.9921 86.3307 64.4688 86.803C63.4986 87.6752 62.5923 88.6241 61.6136 89.4921C60.8945 90.1304 60.1031 90.6878 59.2436 91.3558ZM74.8382 83.4968C74.685 83.4585 74.5914 83.4032 74.5276 83.4245C73.7957 83.6628 73.0256 83.8202 72.349 84.1734C70.0258 85.3818 67.8983 86.8966 65.8942 88.5816C65.7665 88.6879 65.6729 88.8369 65.4729 89.0666C66.9026 88.6156 73.0213 84.9563 74.8382 83.4968ZM79.3911 82.7692C79.7527 83.2756 80.2336 83.4372 80.7271 83.2543C81.1994 83.0798 81.6632 82.8926 82.1441 82.7522C82.2419 82.7224 82.3908 82.8756 82.5142 82.9437C82.4419 83.05 82.3951 83.1947 82.2972 83.25C81.9398 83.4458 81.5654 83.6117 81.1994 83.7904C81.6888 83.8627 82.1398 83.9734 82.1228 84.6542C82.8887 84.4712 83.5652 84.3053 84.3524 84.118C83.8758 83.7394 83.544 83.4798 83.2163 83.216C82.4164 82.5607 81.6547 81.8501 80.808 81.2672C79.9229 80.6545 79.7868 80.714 78.9741 81.3651C78.8932 81.4331 78.7826 81.4757 78.7273 81.5608C78.6209 81.7182 78.5443 81.8927 78.4592 82.0586C78.6635 82.0842 78.889 82.1735 79.0719 82.1182C79.4889 81.9905 79.8804 81.7735 80.2974 81.6416C80.4591 81.5906 80.6591 81.6757 80.8463 81.7012C80.7612 81.8586 80.7186 82.0842 80.591 82.165C80.2123 82.399 79.7995 82.5735 79.3911 82.7735V82.7692ZM59.9712 95.4364C59.3074 95.8108 59.0181 95.0577 58.4905 94.8705C58.5841 95.1385 58.7075 95.3981 58.9075 95.4832C59.3032 95.6534 59.7457 95.7129 60.1669 95.8406C60.4393 95.9214 60.6988 96.0406 61.0392 96.1725C60.4563 96.7852 59.9585 96.4831 59.4564 96.3172C59.6223 96.7129 59.767 97.0618 59.9244 97.4022C59.9584 97.4745 60.0393 97.5469 60.1159 97.5681C60.6435 97.7298 61.1754 97.8787 61.6817 98.0234C61.3966 97.1554 61.1158 96.2746 60.8137 95.3981C60.4435 94.3173 59.7372 93.4961 58.7841 92.9004C58.6139 92.794 58.2096 92.7812 58.116 92.8961C57.9628 93.0834 57.9203 93.411 57.9458 93.6663C57.9628 93.8195 58.1756 94.0365 58.3373 94.079C58.7756 94.1939 59.2351 94.2194 59.6819 94.3088C59.7882 94.3301 59.9499 94.4364 59.9584 94.5215C59.9925 94.8109 59.9712 95.1087 59.9712 95.4364ZM84.9226 85.0371C85.5906 85.7775 86.4459 86.1264 87.0246 85.8243C86.5522 85.5222 86.114 85.2499 85.68 84.9605C84.8843 84.4372 84.2035 84.5223 83.4333 85.2924C83.9567 85.2031 84.412 85.1222 84.9226 85.0329V85.0371ZM62.9752 100.683L63.0986 100.568C63.005 99.4829 61.8349 98.4319 60.4988 98.3468C60.6648 98.5127 60.7499 98.6787 60.852 98.6915C61.6605 98.7723 61.9583 99.4105 62.337 99.985C62.5072 100.245 62.7625 100.453 62.9752 100.683ZM95.1857 67.2512C94.7516 67.9363 94.2623 68.7107 93.7304 69.5446C94.4836 69.434 95.241 68.0554 95.1857 67.2512ZM77.9529 81.0459C77.4636 80.7226 76.3147 81.3097 76.1785 81.8799C76.7827 81.5948 77.3316 81.3395 77.9529 81.0459ZM76.2679 79.9354C76.353 79.9354 76.4338 79.9354 76.5189 79.9311C76.4806 79.3312 76.4466 78.7312 76.4083 78.1355C76.3615 78.1355 76.3147 78.1398 76.2679 78.144V79.9396V79.9354ZM75.8296 90.4921C76.6083 90.4495 76.8849 90.1814 76.6253 89.7645C76.3658 89.99 75.8466 89.9091 75.8296 90.4921Z" fill="white"/>
<path d="M46.1932 39.2953C47.2016 39.2953 48.1505 39.2995 49.0993 39.2953C52.5969 39.2782 56.0903 39.2655 59.5879 39.2314C61.2984 39.2144 62.877 39.5463 64.2089 40.7164C65.1322 41.5291 65.8768 42.4737 65.9194 43.7247C65.9874 45.8437 66.1023 47.984 65.8683 50.0774C65.6258 52.2432 64.0812 53.5751 62.1494 54.4261C61.8558 54.558 61.5069 54.5622 61.1027 54.6388C61.2176 54.7622 61.2899 54.8686 61.392 54.9367C62.7792 55.877 63.694 57.1876 64.2003 58.7577C64.7918 60.5916 65.2896 62.451 65.83 64.3019C66.1619 65.438 66.5066 66.5741 66.8342 67.7102C66.9193 68.0123 66.9576 68.3272 67.0299 68.7059C66.5023 68.7059 66.0428 68.7484 65.596 68.6846C65.4258 68.6591 65.2088 68.408 65.1535 68.2165C64.7195 66.7784 64.328 65.3274 63.9025 63.8849C63.46 62.3744 63.0132 60.8681 62.5324 59.3704C62.192 58.3066 61.575 57.4046 60.7836 56.6174C59.8602 55.7026 58.7497 55.226 57.4562 55.2218C54.5585 55.2132 51.6651 55.2175 48.7674 55.2218C48.5036 55.2218 48.2441 55.2643 47.9207 55.2941V68.6676H46.2485V53.2942C46.0442 53.5708 45.9038 53.758 45.7634 53.9495C44.3295 55.9281 42.3764 57.0812 39.9766 57.2684C37.5002 57.4599 34.994 57.6088 32.5303 57.1663C29.3859 56.5961 27.3988 54.5792 26.3095 51.6348C25.7308 50.0774 25.5436 48.4563 25.5734 46.7841C25.6244 43.7375 25.6074 40.6866 25.5521 37.6401C25.5181 35.6913 25.7904 33.802 26.6329 32.0617C28.0881 29.0535 30.4581 27.3004 33.8834 27.2281C35.8407 27.1855 37.8023 27.1855 39.7638 27.2153C43.5423 27.2749 46.8399 30.3087 47.2739 34.0829C47.3207 34.5041 47.4016 34.9211 47.4611 35.3424C47.5165 35.7253 47.4016 35.9636 46.9633 35.9551C45.406 35.921 45.7166 36.2019 45.5804 34.7637C45.2868 31.6745 42.9168 28.8918 39.3554 28.8322C37.7299 28.8067 36.1045 28.8237 34.4834 28.8152C31.3134 28.7939 29.322 30.5002 28.0796 33.2617C27.3733 34.8318 27.2924 36.5295 27.2882 38.2102C27.2754 41.4355 27.2882 44.6608 27.3733 47.8861C27.4286 50.086 28.1094 52.0986 29.6412 53.7453C30.8241 55.0175 32.3303 55.6473 34.0281 55.6983C35.9131 55.7579 37.8108 55.7749 39.6872 55.626C43.2061 55.3451 45.1677 52.4432 45.5634 49.9541C45.657 49.3796 45.7038 48.7967 45.7719 48.2138C45.7847 48.1116 45.7932 47.9329 45.84 47.9202C46.3846 47.7755 46.1974 47.333 46.2017 47.0011C46.2144 44.6098 46.2102 42.2142 46.2102 39.8229C46.2102 39.6314 46.2102 39.4442 46.2102 39.3038L46.1932 39.2953ZM47.9335 40.7845C47.9079 41.0185 47.8909 41.1036 47.8909 41.1887C47.8909 43.4907 47.8909 45.7927 47.8909 48.0946C47.8909 49.7073 47.9207 51.3157 47.9037 52.9283C47.8994 53.6048 47.8611 53.6091 48.5419 53.6091C51.6651 53.6091 54.7883 53.6261 57.9114 53.6048C58.6986 53.6006 59.4986 53.5197 60.273 53.3751C62.3494 52.9879 64.0004 51.4561 64.2557 49.4349C64.4514 47.8861 64.4556 46.2862 64.3365 44.7246C64.2089 43.0524 63.2898 41.7972 61.6601 41.2313C61.0219 41.01 60.324 40.8866 59.6475 40.8696C56.9839 40.81 54.3202 40.8058 51.6566 40.7888C50.4269 40.7803 49.1929 40.7888 47.9249 40.7888L47.9335 40.7845Z" fill="white"/>
<path d="M68.183 30.6492C67.9745 31.1726 67.7405 31.5768 67.6597 32.0108C67.5405 32.6703 68.1149 33.2916 68.7957 33.3256C69.1915 33.3469 69.5872 33.3256 70.034 33.3256C69.7319 34.0234 68.8255 34.2234 67.8256 33.9255C66.7193 33.5979 66.3874 32.8703 66.6427 31.1938C66.4427 31.3045 66.2938 31.4279 66.1279 31.4619C65.6556 31.5555 65.1577 31.7342 64.7109 31.6576C63.511 31.4534 62.9451 30.445 63.2515 29.2535C63.6897 27.5515 64.962 26.692 66.4342 27.1175C67.132 27.3175 67.5533 27.8409 67.8043 28.4876C67.8639 28.6451 67.7575 28.9812 67.6214 29.0706C67.4256 29.1982 67.1235 29.2408 66.8895 29.1982C66.7789 29.177 66.681 28.8749 66.647 28.6919C66.5831 28.3515 66.8044 27.926 66.3066 27.7388C65.847 27.5643 65.3364 27.6749 64.9833 28.1302C64.7365 28.4451 64.511 28.8025 64.3833 29.177C64.0344 30.2109 64.7875 31.0449 65.8683 30.93C66.5321 30.8577 67.0299 30.5939 67.515 30.1216C68.7319 28.9387 70.3914 29.1897 71.0339 30.5854C71.2849 31.13 71.2339 31.6534 70.9445 32.1597C70.6935 32.6022 70.4977 32.6405 70.1105 32.3172C69.6382 31.9214 69.183 31.5044 68.7149 31.096C68.583 30.9811 68.4468 30.8747 68.183 30.6534V30.6492ZM69.9148 31.3768C69.9872 31.3598 70.0595 31.347 70.1318 31.33C70.1318 31.0917 70.2297 30.7683 70.1105 30.6322C69.8893 30.3726 69.5531 30.2024 69.2425 30.0407C69.1617 29.9982 68.9362 30.0748 68.8936 30.1599C68.8511 30.245 68.9106 30.445 68.9915 30.5258C69.2851 30.8236 69.6042 31.096 69.9148 31.3811V31.3768Z" fill="white"/>
<path d="M59.2683 25.4068C59.5661 25.377 59.8172 25.4068 60.0086 25.3217C60.515 25.0834 60.8809 25.0919 60.9788 25.7217C61.3277 25.6664 61.6426 25.5685 61.9489 25.5813C62.8255 25.6153 63.2978 26.0961 63.2254 26.9769C63.1659 27.713 62.9999 28.4449 62.8169 29.1597C62.7021 29.6022 62.6723 29.9767 63.0084 30.3256C63.0595 30.3767 63.051 30.4873 63.102 30.7128C62.3404 30.5681 61.6596 30.4405 60.915 30.3001C61.0001 30.1128 61.0213 29.9937 61.0894 29.9341C62.0468 29.1214 61.9319 27.9258 62.1702 26.862C62.2553 26.4706 61.6979 26.1174 61.3192 26.3301C61.0639 26.4706 60.7916 26.7259 60.7065 26.9897C60.5065 27.6066 60.3873 28.2577 60.298 28.9044C60.2639 29.1384 60.4001 29.398 60.4724 29.6405C60.5235 29.815 60.5958 29.9809 60.6299 30.0745C59.2172 29.9809 57.8301 29.8873 56.3153 29.7852C56.4429 29.6108 56.5365 29.3725 56.711 29.2618C57.0089 29.0789 57.1025 28.8746 57.0812 28.5257C57.0472 27.9598 57.0471 27.3896 57.0982 26.828C57.1408 26.3642 57.0131 26.0834 56.5536 25.9642C56.4302 25.9302 56.3323 25.8195 56.1621 25.7047C56.728 25.1983 57.4088 25.2409 58.0641 25.0068C58.0641 26.3089 58.0641 27.5428 58.0641 28.7768C58.0641 29.2108 58.2811 29.398 58.6896 29.2746C58.847 29.2278 59.0513 29.0661 59.0896 28.9172C59.2981 28.113 59.481 27.3045 59.6257 26.4876C59.6597 26.2876 59.5278 26.0493 59.4555 25.8366C59.4087 25.7004 59.3406 25.5685 59.2683 25.4068Z" fill="white"/>
<path d="M52.112 30.858C51.8567 30.1943 51.6099 29.573 51.3844 28.9475C51.3546 28.8582 51.4099 28.6454 51.4482 28.6412C51.5886 28.6242 51.7759 28.6157 51.8737 28.6965C52.061 28.8497 52.1929 29.0709 52.3588 29.2539C52.8354 29.7773 53.4481 29.9432 54.0948 29.7347C54.4055 29.6369 54.8182 29.339 54.8693 29.0709C54.9288 28.7688 54.7076 28.3136 54.465 28.0753C54.1927 27.8072 53.763 27.6966 53.3928 27.5391C52.7971 27.2838 52.1461 27.1179 51.6014 26.7818C50.5632 26.135 50.5845 24.6032 51.5844 23.9096C52.1248 23.5352 52.695 23.3139 53.3758 23.4416C53.5289 23.4714 53.7162 23.3522 53.8778 23.2756C54.031 23.2033 54.1629 23.0927 54.3672 22.9608C54.648 23.8032 54.9076 24.5819 55.1671 25.3606L54.9586 25.501C54.7203 25.2925 54.4991 25.0627 54.2395 24.884C53.8268 24.6032 53.4183 24.2841 52.9588 24.1224C52.5418 23.9777 52.1716 24.2628 51.9673 24.6542C51.7716 25.0287 51.9929 25.3393 52.2652 25.5265C52.6354 25.7818 53.0524 25.9776 53.4694 26.152C53.9715 26.3648 54.5161 26.4796 55.0012 26.7179C55.8096 27.1222 56.2692 28.0157 56.1032 28.7093C55.8649 29.6794 54.9629 30.424 54.0225 30.4283C53.7076 30.4283 53.38 30.4028 53.0736 30.4666C52.7715 30.5304 52.4865 30.6964 52.1078 30.858H52.112Z" fill="white"/>
<path d="M71.8045 39.8657C72.3789 41.1294 73.2001 42.0995 74.6681 42.4144C74.6 42.24 74.5617 42.0995 74.4979 41.9719C73.766 40.5337 74.3234 39.2912 75.8935 38.9764C76.8509 38.7849 77.753 38.9466 78.4423 39.7508C79.0337 40.4443 79.1103 41.389 78.6168 42.1549C78.1955 42.8059 77.6083 43.2144 76.8594 43.4228C74.5405 44.0611 72.2002 42.8357 71.4556 40.5507C71.396 40.372 71.5109 40.138 71.5407 39.9295C71.63 39.9082 71.7151 39.8869 71.8045 39.8657ZM75.9872 42.3293C76.7063 42.1889 77.57 42.0825 78.187 41.3634C78.438 41.0698 78.4508 40.8273 78.187 40.5337C77.4764 39.738 75.5276 40.0103 75.0766 40.9805C74.817 41.5421 75.2766 42.3378 75.9914 42.3293H75.9872Z" fill="white"/>
<path d="M76.7656 44.4747C77.072 44.4066 77.2209 44.3343 77.3613 44.347C78.2336 44.4194 79.2123 45.7299 79.1016 46.6532C78.957 47.8489 77.9485 48.7297 76.8848 48.4701C76.3274 48.334 75.7444 48.0531 75.3147 47.6702C74.6594 47.0915 74.1233 46.3724 73.5446 45.7044C73.4552 45.6023 73.4127 45.4576 73.3489 45.3342C73.2893 45.3725 73.2297 45.4108 73.1702 45.4491C73.1063 46.1426 73.017 46.8362 72.9914 47.5298C72.9872 47.6787 73.217 47.8234 73.3021 47.9893C73.3872 48.1467 73.4255 48.3255 73.485 48.4957C73.3148 48.4914 73.1148 48.5382 72.9744 48.4701C71.7958 47.8829 71.8213 47.8829 72.0383 46.5554C72.1575 45.8235 72.1872 45.0746 72.2638 44.3385C72.2851 44.1173 72.3234 43.896 72.3787 43.5088C72.7787 43.9471 73.0851 44.2747 73.3829 44.6108C73.9658 45.2533 74.4892 45.9597 75.1445 46.5171C75.5785 46.883 76.1699 47.1255 76.7316 47.2617C77.306 47.3979 77.8719 46.9766 78.0719 46.449C78.2847 45.8788 77.9741 45.5044 77.5783 45.1682C77.3528 44.9768 77.1273 44.7895 76.7741 44.4874L76.7656 44.4747Z" fill="white"/>
<path d="M76.0551 53.1582C76.4125 52.3625 76.7444 51.6519 77.038 50.9243C77.0763 50.8264 76.9359 50.652 76.872 50.5116C76.7784 50.3073 76.6848 50.1031 76.6635 49.8521C77.3061 49.9925 77.6209 50.4946 78.0039 50.903C78.0677 50.9669 78.0166 51.1796 77.9698 51.303C77.5826 52.2519 77.1997 53.2007 76.7869 54.1368C76.5614 54.6474 76.4593 54.6389 76.0338 54.2645C74.4978 52.9327 72.9574 51.6136 71.4214 50.2861C71.1703 50.0691 70.8767 49.8563 71.1491 49.4478C71.3576 49.133 71.5618 49.1202 71.8341 49.367C73.1319 50.5414 74.4339 51.703 75.736 52.8731C75.8125 52.9412 75.8891 53.0093 76.0593 53.1582H76.0551Z" fill="white"/>
<path d="M75.2977 34.1601C76.2636 34.3856 76.6891 35.1132 77.4465 35.5685C77.1402 35.7642 76.9402 35.9259 76.7147 36.0366C75.1275 36.8025 73.5319 37.5471 71.9576 38.33C71.8129 38.4023 71.7363 38.6704 71.6895 38.8619C71.6555 39.0151 71.7193 39.1895 71.6469 39.3938C70.6938 38.7938 70.6342 37.679 70.0768 36.862C70.1279 36.8067 70.1832 36.7514 70.2343 36.6961C70.413 36.8195 70.613 36.9216 70.7704 37.0748C71.03 37.3258 71.264 37.3769 71.6129 37.2024C72.8298 36.6025 74.0595 36.0408 75.2935 35.4749C75.6594 35.3089 75.7786 35.0919 75.5573 34.7303C75.4764 34.5984 75.4296 34.4494 75.302 34.1644L75.2977 34.1601Z" fill="white"/>
<path d="M57.6013 24.4582C57.1503 24.4327 56.8865 24.2667 56.895 23.8455C56.9035 23.4285 57.1673 23.2498 57.5503 23.2413C57.9502 23.2328 58.1715 23.4413 58.18 23.854C58.1928 24.3008 57.8992 24.4157 57.6013 24.4582Z" fill="white"/>
<path d="M79.9569 82.7649C80.3994 82.5352 80.6973 82.3565 81.0164 82.2416C81.0802 82.2203 81.2334 82.4458 81.3483 82.5607C81.0717 82.7692 80.8079 83.0032 80.5058 83.1649C80.442 83.199 80.242 82.9777 79.9612 82.7649H79.9569Z" fill="white"/>
</svg>
